<svg xmlns="http://www.w3.org/2000/svg" viewBox="0 0 900 200" width="900" height="200">
  <defs>
    <style>
      @keyframes f0 { 0%{opacity:0;y:-200}10%{opacity:1}90%{opacity:.5}100%{opacity:0;y:200} }
      @keyframes f1 { 0%{opacity:0;y:-180}8%{opacity:1}85%{opacity:.4}100%{opacity:0;y:210} }
      @keyframes f2 { 0%{opacity:0;y:-240}5%{opacity:1}88%{opacity:.6}100%{opacity:0;y:220} }
      @keyframes f3 { 0%{opacity:0;y:-160}12%{opacity:1}80%{opacity:.3}100%{opacity:0;y:200} }
      @keyframes f4 { 0%{opacity:0;y:-280}4%{opacity:1}92%{opacity:.5}100%{opacity:0;y:210} }
      @keyframes titlePulse { 0%,100%{opacity:.9;filter:drop-shadow(0 0 4px #00ff40)}50%{opacity:1;filter:drop-shadow(0 0 14px #00ff40) drop-shadow(0 0 28px #00ff4060)} }
      @keyframes scanline { 0%{transform:translateY(-200px)}100%{transform:translateY(200px)} }

      .bg{fill:#0a0a0a}
      text.b{fill:#00ff41;font-family:'Courier New',monospace;font-size:11px}
      text.m{fill:#00cc33;font-family:'Courier New',monospace;font-size:11px}
      text.d{fill:#008f11;font-family:'Courier New',monospace;font-size:11px}
      text.f{fill:#003b00;font-family:'Courier New',monospace;font-size:11px}

      .a0 text{animation:f0 3.2s linear infinite}
      .a1 text{animation:f1 2.8s linear infinite .3s}
      .a2 text{animation:f2 3.5s linear infinite .7s}
      .a3 text{animation:f3 2.5s linear infinite .1s}
      .a4 text{animation:f4 4.0s linear infinite 1.2s}
      .a5 text{animation:f0 3.0s linear infinite .5s}
      .a6 text{animation:f1 3.3s linear infinite .9s}
      .a7 text{animation:f2 2.7s linear infinite .2s}
      .a8 text{animation:f3 3.8s linear infinite 1.0s}
      .a9 text{animation:f4 2.9s linear infinite .6s}
      .a10 text{animation:f0 3.4s linear infinite 1.1s}
      .a11 text{animation:f1 2.6s linear infinite .4s}
      .a12 text{animation:f2 3.1s linear infinite .8s}
      .a13 text{animation:f3 3.6s linear infinite 1.3s}
      .a14 text{animation:f4 2.4s linear infinite .15s}
      .a15 text{animation:f0 3.7s linear infinite .55s}
      .a16 text{animation:f1 2.3s linear infinite .85s}
      .a17 text{animation:f2 3.9s linear infinite 1.15s}
      .a18 text{animation:f3 2.2s linear infinite .35s}
      .a19 text{animation:f4 3.3s linear infinite .75s}
      .a20 text{animation:f0 2.8s linear infinite 1.05s}
      .a21 text{animation:f1 3.5s linear infinite .25s}
      .a22 text{animation:f2 2.6s linear infinite .65s}
      .a23 text{animation:f3 3.2s linear infinite .95s}
      .a24 text{animation:f4 2.9s linear infinite 1.25s}
      .a25 text{animation:f0 3.6s linear infinite .45s}
      .a26 text{animation:f1 2.5s linear infinite .05s}
      .a27 text{animation:f2 3.4s linear infinite .5s}
      .a28 text{animation:f3 2.7s linear infinite 1.0s}
      .a29 text{animation:f4 3.1s linear infinite .3s}

      .title-group{animation:titlePulse 3s ease-in-out infinite}
      .title{font-family:'Courier New',monospace;font-size:28px;font-weight:bold;fill:#00ff41;letter-spacing:4px}
      .subtitle{font-family:'Courier New',monospace;font-size:12px;fill:#00cc33;letter-spacing:6px}
      .bracket{fill:#008f11}
      .scanline{fill:url(#scanGrad);animation:scanline 4s linear infinite}
    </style>
    <linearGradient id="scanGrad" x1="0" y1="0" x2="0" y2="1">
      <stop offset="0%" stop-color="transparent"/>
      <stop offset="45%" stop-color="transparent"/>
      <stop offset="50%" stop-color="#00ff4018"/>
      <stop offset="55%" stop-color="transparent"/>
      <stop offset="100%" stop-color="transparent"/>
    </linearGradient>
    <linearGradient id="fadeTop" x1="0" y1="0" x2="0" y2="1">
      <stop offset="0%" stop-color="#0a0a0a"/>
      <stop offset="20%" stop-color="#0a0a0a" stop-opacity="0"/>
    </linearGradient>
    <linearGradient id="fadeBottom" x1="0" y1="0" x2="0" y2="1">
      <stop offset="80%" stop-color="#0a0a0a" stop-opacity="0"/>
      <stop offset="100%" stop-color="#0a0a0a"/>
    </linearGradient>
    <radialGradient id="vignette" cx="50%" cy="50%" r="65%">
      <stop offset="0%" stop-color="transparent"/>
      <stop offset="100%" stop-color="#0a0a0a" stop-opacity="0.6"/>
    </radialGradient>
  </defs>

  <rect class="bg" width="900" height="200" rx="8"/>

  <!-- Column 0 -->
  <g class="a0"><text class="b" x="15" y="10">1</text><text class="m" x="15" y="24">0</text><text class="d" x="15" y="38">1</text><text class="f" x="15" y="52">1</text><text class="d" x="15" y="66">0</text><text class="f" x="15" y="80">1</text><text class="m" x="15" y="94">0</text><text class="b" x="15" y="108">1</text><text class="d" x="15" y="122">0</text><text class="f" x="15" y="136">1</text><text class="m" x="15" y="150">1</text><text class="b" x="15" y="164">0</text><text class="d" x="15" y="178">1</text><text class="f" x="15" y="192">0</text></g>
  <!-- Column 1 -->
  <g class="a1"><text class="m" x="45" y="10">0</text><text class="b" x="45" y="24">1</text><text class="f" x="45" y="38">0</text><text class="d" x="45" y="52">1</text><text class="m" x="45" y="66">1</text><text class="b" x="45" y="80">0</text><text class="f" x="45" y="94">1</text><text class="d" x="45" y="108">0</text><text class="m" x="45" y="122">1</text><text class="b" x="45" y="136">1</text><text class="f" x="45" y="150">0</text><text class="d" x="45" y="164">1</text><text class="m" x="45" y="178">0</text><text class="b" x="45" y="192">1</text></g>
  <!-- Column 2 -->
  <g class="a2"><text class="d" x="75" y="10">1</text><text class="f" x="75" y="24">0</text><text class="b" x="75" y="38">1</text><text class="m" x="75" y="52">0</text><text class="f" x="75" y="66">1</text><text class="d" x="75" y="80">0</text><text class="b" x="75" y="94">1</text><text class="f" x="75" y="108">1</text><text class="d" x="75" y="122">0</text><text class="m" x="75" y="136">1</text><text class="b" x="75" y="150">0</text><text class="f" x="75" y="164">1</text><text class="d" x="75" y="178">1</text><text class="m" x="75" y="192">0</text></g>
  <!-- Column 3 -->
  <g class="a3"><text class="f" x="105" y="10">0</text><text class="d" x="105" y="24">1</text><text class="m" x="105" y="38">0</text><text class="b" x="105" y="52">1</text><text class="d" x="105" y="66">0</text><text class="f" x="105" y="80">1</text><text class="m" x="105" y="94">0</text><text class="b" x="105" y="108">1</text><text class="f" x="105" y="122">0</text><text class="d" x="105" y="136">1</text><text class="m" x="105" y="150">0</text><text class="b" x="105" y="164">1</text><text class="f" x="105" y="178">0</text><text class="d" x="105" y="192">1</text></g>
  <!-- Column 4 -->
  <g class="a4"><text class="b" x="135" y="10">1</text><text class="m" x="135" y="24">1</text><text class="d" x="135" y="38">0</text><text class="f" x="135" y="52">1</text><text class="b" x="135" y="66">0</text><text class="m" x="135" y="80">1</text><text class="d" x="135" y="94">0</text><text class="f" x="135" y="108">1</text><text class="b" x="135" y="122">1</text><text class="m" x="135" y="136">0</text><text class="d" x="135" y="150">1</text><text class="f" x="135" y="164">0</text><text class="b" x="135" y="178">1</text><text class="m" x="135" y="192">0</text></g>
  <!-- Column 5 -->
  <g class="a5"><text class="d" x="165" y="10">0</text><text class="f" x="165" y="24">1</text><text class="b" x="165" y="38">0</text><text class="m" x="165" y="52">1</text><text class="f" x="165" y="66">0</text><text class="b" x="165" y="80">1</text><text class="m" x="165" y="94">0</text><text class="d" x="165" y="108">1</text><text class="f" x="165" y="122">0</text><text class="b" x="165" y="136">1</text><text class="m" x="165" y="150">0</text><text class="d" x="165" y="164">1</text><text class="f" x="165" y="178">0</text><text class="b" x="165" y="192">1</text></g>
  <!-- Column 6 -->
  <g class="a6"><text class="m" x="195" y="10">1</text><text class="b" x="195" y="24">0</text><text class="f" x="195" y="38">1</text><text class="d" x="195" y="52">0</text><text class="m" x="195" y="66">1</text><text class="f" x="195" y="80">0</text><text class="b" x="195" y="94">1</text><text class="m" x="195" y="108">0</text><text class="d" x="195" y="122">1</text><text class="f" x="195" y="136">0</text><text class="b" x="195" y="150">1</text><text class="m" x="195" y="164">0</text><text class="d" x="195" y="178">1</text><text class="f" x="195" y="192">0</text></g>
  <!-- Column 7 -->
  <g class="a7"><text class="f" x="225" y="10">0</text><text class="d" x="225" y="24">1</text><text class="m" x="225" y="38">0</text><text class="b" x="225" y="52">1</text><text class="f" x="225" y="66">0</text><text class="d" x="225" y="80">1</text><text class="f" x="225" y="94">0</text><text class="b" x="225" y="108">1</text><text class="m" x="225" y="122">0</text><text class="d" x="225" y="136">1</text><text class="f" x="225" y="150">0</text><text class="b" x="225" y="164">1</text><text class="m" x="225" y="178">0</text><text class="d" x="225" y="192">1</text></g>
  <!-- Column 8 (center-left, sparse) -->
  <g class="a8"><text class="f" x="260" y="10">0</text><text class="f" x="260" y="38">1</text><text class="f" x="260" y="66">0</text><text class="f" x="260" y="94">1</text><text class="f" x="260" y="122">0</text><text class="f" x="260" y="150">1</text><text class="f" x="260" y="178">0</text></g>
  <!-- Column 9 -->
  <g class="a9"><text class="f" x="290" y="24">1</text><text class="f" x="290" y="52">0</text><text class="f" x="290" y="80">1</text><text class="f" x="290" y="108">0</text><text class="f" x="290" y="136">1</text><text class="f" x="290" y="164">0</text><text class="f" x="290" y="192">1</text></g>
  <!-- Column 10 (sparse center) -->
  <g class="a10"><text class="f" x="330" y="10">1</text><text class="f" x="330" y="52">0</text><text class="f" x="330" y="94">1</text><text class="f" x="330" y="136">0</text><text class="f" x="330" y="178">1</text></g>
  <!-- Column 11 -->
  <g class="a11"><text class="f" x="380" y="24">0</text><text class="f" x="380" y="66">1</text><text class="f" x="380" y="108">0</text><text class="f" x="380" y="150">1</text><text class="f" x="380" y="192">0</text></g>
  <!-- Column 12 -->
  <g class="a12"><text class="f" x="440" y="10">1</text><text class="f" x="440" y="52">0</text><text class="f" x="440" y="94">1</text><text class="f" x="440" y="136">0</text><text class="f" x="440" y="178">1</text></g>
  <!-- Column 13 -->
  <g class="a13"><text class="f" x="500" y="24">0</text><text class="f" x="500" y="66">1</text><text class="f" x="500" y="108">0</text><text class="f" x="500" y="150">1</text><text class="f" x="500" y="192">0</text></g>
  <!-- Column 14 -->
  <g class="a14"><text class="f" x="560" y="10">1</text><text class="f" x="560" y="52">0</text><text class="f" x="560" y="94">1</text><text class="f" x="560" y="136">0</text><text class="f" x="560" y="178">1</text></g>
  <!-- Column 15 -->
  <g class="a15"><text class="f" x="610" y="24">0</text><text class="f" x="610" y="52">1</text><text class="f" x="610" y="80">0</text><text class="f" x="610" y="108">1</text><text class="f" x="610" y="136">0</text><text class="f" x="610" y="164">1</text><text class="f" x="610" y="192">0</text></g>
  <!-- Column 16 -->
  <g class="a16"><text class="f" x="640" y="10">1</text><text class="f" x="640" y="38">0</text><text class="f" x="640" y="66">1</text><text class="f" x="640" y="94">0</text><text class="f" x="640" y="122">1</text><text class="f" x="640" y="150">0</text><text class="f" x="640" y="178">1</text></g>
  <!-- Column 17 (right side, dense) -->
  <g class="a17"><text class="d" x="675" y="10">1</text><text class="b" x="675" y="24">0</text><text class="f" x="675" y="38">1</text><text class="m" x="675" y="52">0</text><text class="d" x="675" y="66">1</text><text class="b" x="675" y="80">0</text><text class="f" x="675" y="94">1</text><text class="m" x="675" y="108">0</text><text class="d" x="675" y="122">1</text><text class="b" x="675" y="136">0</text><text class="f" x="675" y="150">1</text><text class="m" x="675" y="164">0</text><text class="d" x="675" y="178">1</text><text class="b" x="675" y="192">0</text></g>
  <!-- Column 18 -->
  <g class="a18"><text class="m" x="705" y="10">0</text><text class="f" x="705" y="24">1</text><text class="b" x="705" y="38">0</text><text class="d" x="705" y="52">1</text><text class="f" x="705" y="66">0</text><text class="m" x="705" y="80">1</text><text class="b" x="705" y="94">0</text><text class="f" x="705" y="108">1</text><text class="m" x="705" y="122">0</text><text class="d" x="705" y="136">1</text><text class="b" x="705" y="150">0</text><text class="f" x="705" y="164">1</text><text class="m" x="705" y="178">0</text><text class="d" x="705" y="192">1</text></g>
  <!-- Column 19 -->
  <g class="a19"><text class="b" x="735" y="10">1</text><text class="m" x="735" y="24">0</text><text class="d" x="735" y="38">1</text><text class="f" x="735" y="52">0</text><text class="b" x="735" y="66">1</text><text class="d" x="735" y="80">0</text><text class="m" x="735" y="94">1</text><text class="b" x="735" y="108">0</text><text class="f" x="735" y="122">1</text><text class="m" x="735" y="136">0</text><text class="d" x="735" y="150">1</text><text class="b" x="735" y="164">0</text><text class="f" x="735" y="178">1</text><text class="m" x="735" y="192">0</text></g>
  <!-- Column 20 -->
  <g class="a20"><text class="f" x="765" y="10">0</text><text class="b" x="765" y="24">1</text><text class="m" x="765" y="38">0</text><text class="d" x="765" y="52">1</text><text class="f" x="765" y="66">0</text><text class="b" x="765" y="80">1</text><text class="d" x="765" y="94">0</text><text class="m" x="765" y="108">1</text><text class="b" x="765" y="122">0</text><text class="f" x="765" y="136">1</text><text class="d" x="765" y="150">0</text><text class="m" x="765" y="164">1</text><text class="b" x="765" y="178">0</text><text class="f" x="765" y="192">1</text></g>
  <!-- Column 21 -->
  <g class="a21"><text class="m" x="795" y="10">1</text><text class="d" x="795" y="24">0</text><text class="f" x="795" y="38">1</text><text class="b" x="795" y="52">0</text><text class="m" x="795" y="66">1</text><text class="f" x="795" y="80">0</text><text class="b" x="795" y="94">1</text><text class="d" x="795" y="108">0</text><text class="m" x="795" y="122">1</text><text class="b" x="795" y="136">0</text><text class="f" x="795" y="150">1</text><text class="d" x="795" y="164">0</text><text class="b" x="795" y="178">1</text><text class="m" x="795" y="192">0</text></g>
  <!-- Column 22 -->
  <g class="a22"><text class="d" x="825" y="10">0</text><text class="f" x="825" y="24">1</text><text class="m" x="825" y="38">0</text><text class="d" x="825" y="52">1</text><text class="b" x="825" y="66">0</text><text class="m" x="825" y="80">1</text><text class="f" x="825" y="94">0</text><text class="b" x="825" y="108">1</text><text class="d" x="825" y="122">0</text><text class="m" x="825" y="136">1</text><text class="b" x="825" y="150">0</text><text class="f" x="825" y="164">1</text><text class="m" x="825" y="178">0</text><text class="d" x="825" y="192">1</text></g>
  <!-- Column 23 -->
  <g class="a23"><text class="b" x="855" y="10">1</text><text class="m" x="855" y="24">0</text><text class="d" x="855" y="38">1</text><text class="f" x="855" y="52">0</text><text class="m" x="855" y="66">1</text><text class="b" x="855" y="80">0</text><text class="d" x="855" y="94">1</text><text class="f" x="855" y="108">0</text><text class="b" x="855" y="122">1</text><text class="d" x="855" y="136">0</text><text class="m" x="855" y="150">1</text><text class="f" x="855" y="164">0</text><text class="b" x="855" y="178">1</text><text class="m" x="855" y="192">0</text></g>
  <!-- Column 24 -->
  <g class="a24"><text class="f" x="880" y="10">0</text><text class="d" x="880" y="24">1</text><text class="b" x="880" y="38">0</text><text class="m" x="880" y="52">1</text><text class="f" x="880" y="66">0</text><text class="d" x="880" y="80">1</text><text class="b" x="880" y="94">0</text><text class="m" x="880" y="108">1</text><text class="f" x="880" y="122">0</text><text class="b" x="880" y="136">1</text><text class="d" x="880" y="150">0</text><text class="m" x="880" y="164">1</text><text class="f" x="880" y="178">0</text><text class="b" x="880" y="192">1</text></g>

  <!-- Vignette overlay -->
  <rect width="900" height="200" rx="8" fill="url(#vignette)"/>

  <!-- Center Title -->
  <g class="title-group">
    <text x="450" y="90" text-anchor="middle" class="title">
      <tspan class="bracket">[</tspan> c4o5<tspan class="bracket">.</tspan>sec <tspan class="bracket">]</tspan>
    </text>
    <text x="450" y="115" text-anchor="middle" class="subtitle">SECURITY RESEARCHER</text>
  </g>

  <!-- Scanline -->
  <rect class="scanline" width="900" height="200" rx="8"/>

  <!-- Fade top/bottom -->
  <rect width="900" height="200" rx="8" fill="url(#fadeTop)"/>
  <rect width="900" height="200" rx="8" fill="url(#fadeBottom)"/>

  <!-- Border -->
  <rect x="1" y="1" width="898" height="198" rx="7" fill="none" stroke="#00ff4120" stroke-width="1"/>
</svg>
